<svg width="24" height="24" viewBox="0 0 24 24" fill="none" xmlns="http://www.w3.org/2000/svg">
<path d="M15.5577 15.209C15.5576 14.949 15.3969 14.7004 15.1328 14.5879L15.0137 14.5479L12.628 13.9678C12.3055 13.8896 11.9754 13.8496 11.6436 13.8496C11.3253 13.8496 10.7736 13.9983 10.2129 14.1992C9.95183 14.2928 9.7169 14.3872 9.54788 14.458C9.46391 14.4932 9.39707 14.523 9.35159 14.543C9.32885 14.553 9.311 14.5604 9.29984 14.5654C9.29459 14.5678 9.29056 14.5692 9.28812 14.5703C9.28689 14.5709 9.2856 14.5721 9.28519 14.5723C9.27685 14.5761 9.26825 14.5795 9.2598 14.583L6.84964 15.5908V19.2373H8.61038C9.01824 19.2373 9.42451 19.2855 9.82132 19.3828H9.82034L12.5772 20.0527H12.5782C13.0568 20.1694 13.5562 20.181 14.041 20.0869L17.0909 19.4941C17.7363 19.3684 18.3276 19.0593 18.7881 18.6113L20.9453 16.5127V16.5117C21.2174 16.2476 21.2185 15.8283 20.9453 15.5625C20.6895 15.3135 20.2725 15.2813 19.9776 15.4961L17.4639 17.332L17.4629 17.3311C16.9553 17.7018 16.3417 17.8994 15.7139 17.8994H13.2852C12.8159 17.8992 12.4356 17.5191 12.4356 17.0498C12.4356 16.6098 12.7698 16.2478 13.1983 16.2041L13.2852 16.2002H14.8311C15.255 16.2002 15.5577 15.8716 15.5577 15.5156V15.209ZM19.1504 6.5C19.1504 5.03644 17.9636 3.84961 16.5 3.84961C15.0365 3.84961 13.8496 5.03644 13.8496 6.5C13.8496 7.96356 15.0365 9.15039 16.5 9.15039C17.9636 9.15039 19.1504 7.96356 19.1504 6.5ZM17.2578 15.377L18.9766 14.123C19.9368 13.4232 21.2776 13.5135 22.1309 14.3438C23.0896 15.2764 23.0896 16.798 22.1299 17.7305L19.9727 19.8301C19.2719 20.5117 18.3804 20.9741 17.4151 21.1621L14.3662 21.7559H14.3653C13.7315 21.8789 13.0802 21.8812 12.4463 21.7627L12.1758 21.7051L9.418 21.0342H9.41605C9.15315 20.9697 8.88305 20.9375 8.61038 20.9375H6.84183C6.83941 21.0032 6.83889 21.0663 6.83402 21.126C6.8161 21.3453 6.77417 21.5931 6.64847 21.8398C6.47102 22.1881 6.18777 22.4711 5.83988 22.6484C5.59314 22.7741 5.3453 22.8161 5.12601 22.834C4.91673 22.8511 4.66624 22.8496 4.40042 22.8496H3.59964C3.33382 22.8496 3.08333 22.8511 2.87406 22.834C2.65476 22.8161 2.40692 22.7741 2.16019 22.6484C1.8123 22.4711 1.52904 22.1882 1.35159 21.8398C1.2259 21.5931 1.18396 21.3453 1.16605 21.126C1.14896 20.9167 1.15042 20.6662 1.15042 20.4004V14.5996C1.15042 14.3338 1.14896 14.0833 1.16605 13.874C1.18396 13.6547 1.2259 13.4069 1.35159 13.1602L1.42288 13.0322C1.60069 12.7424 1.85587 12.5067 2.16019 12.3516L2.34476 12.2725C2.52892 12.2068 2.70949 12.1795 2.87406 12.166C3.08333 12.1489 3.33382 12.1504 3.59964 12.1504H4.40042C4.66624 12.1504 4.91673 12.1489 5.12601 12.166C5.3453 12.1839 5.59314 12.2259 5.83988 12.3516C6.18777 12.5289 6.47102 12.8118 6.64847 13.1602C6.75276 13.3649 6.79735 13.5705 6.82034 13.7598L8.60355 13.0146L8.66605 12.9863C8.71979 12.9627 8.79705 12.9293 8.89163 12.8896C9.08014 12.8107 9.34285 12.7057 9.6387 12.5996C10.1923 12.4012 10.9972 12.1504 11.6436 12.1504C12.1107 12.1504 12.5758 12.2055 13.0293 12.3154L15.4151 12.8955C16.4836 13.1548 17.2578 14.0992 17.2578 15.209V15.377ZM2.84964 20.4004C2.84964 20.694 2.85027 20.8633 2.86038 20.9873C2.86425 21.0346 2.86936 21.0625 2.8721 21.0762C2.88459 21.0972 2.90184 21.1142 2.92288 21.127C2.93618 21.1297 2.96404 21.1357 3.01273 21.1396C3.13675 21.1498 3.30607 21.1504 3.59964 21.1504H4.40042C4.69399 21.1504 4.86331 21.1498 4.98734 21.1396C5.0349 21.1358 5.06256 21.1297 5.0762 21.127C5.09742 21.1142 5.11437 21.0972 5.12699 21.0762C5.12972 21.0625 5.1358 21.0348 5.13968 20.9873C5.14979 20.8633 5.15042 20.694 5.15042 20.4004V15.042C5.15016 15.0289 5.15008 15.0159 5.15042 15.0029V14.5996C5.15042 14.306 5.14979 14.1367 5.13968 14.0127C5.13571 13.964 5.1297 13.9362 5.12699 13.9229C5.11432 13.902 5.09737 13.8847 5.0762 13.8721C5.06249 13.8693 5.03468 13.8642 4.98734 13.8604C4.86331 13.8502 4.69399 13.8496 4.40042 13.8496H3.59964C3.30607 13.8496 3.13675 13.8502 3.01273 13.8604C2.96428 13.8643 2.93626 13.8694 2.92288 13.8721C2.90189 13.8847 2.88464 13.902 2.8721 13.9229C2.86938 13.9362 2.86434 13.9643 2.86038 14.0127C2.85027 14.1367 2.84964 14.306 2.84964 14.5996V20.4004ZM20.8496 6.5C20.8496 8.90244 18.9025 10.8496 16.5 10.8496C15.2379 10.8496 14.1023 10.3117 13.3077 9.45312C12.7563 9.70556 12.1449 9.84961 11.5 9.84961C9.09759 9.84961 7.15042 7.90244 7.15042 5.5C7.15042 3.09756 9.09759 1.15039 11.5 1.15039C12.7616 1.15039 13.8967 1.68776 14.6905 2.54395C15.2416 2.29145 15.8542 2.15039 16.5 2.15039C18.9025 2.15039 20.8496 4.09756 20.8496 6.5ZM8.84964 5.5C8.84964 6.96356 10.0365 8.15039 11.5 8.15039C11.8208 8.15039 12.1264 8.09023 12.4102 7.98633C12.2416 7.52261 12.1504 7.02198 12.1504 6.5C12.1504 5.36387 12.5856 4.32949 13.2989 3.55469C12.8258 3.1169 12.194 2.84961 11.5 2.84961C10.0365 2.84961 8.84964 4.03644 8.84964 5.5Z" fill="#525866"/>
</svg>
